<svg viewBox="0 0 24 24" fill="none" xmlns="http://www.w3.org/2000/svg">
<!-- Half sun/half moon icon for dark/light theme toggle -->
<!-- Left half: moon crescent, Right half: sun with rays -->
<defs>
  <clipPath id="leftHalf">
    <rect x="0" y="0" width="12" height="24"/>
  </clipPath>
  <clipPath id="rightHalf">
    <rect x="12" y="0" width="12" height="24"/>
  </clipPath>
</defs>
<!-- Moon on left side -->
<g clip-path="url(#leftHalf)">
  <path d="M12 3C7.03 3 3 7.03 3 12C3 16.97 7.03 21 12 21C12.83 21 13.63 20.89 14.4 20.69C11.03 19.72 8.5 16.64 8.5 13C8.5 9.36 11.03 6.28 14.4 5.31C13.63 5.11 12.83 5 12 5V3Z" fill="currentColor"/>
</g>
<!-- Sun on right side -->
<g clip-path="url(#rightHalf)">
  <circle cx="12" cy="12" r="4" fill="currentColor"/>
  <path d="M12 2V4M12 20V22M4 12H2M6.31 6.31L4.9 4.9M17.69 6.31L19.1 4.9M6.31 17.69L4.9 19.1M17.69 17.69L19.1 19.1M22 12H20" stroke="currentColor" stroke-width="2" stroke-linecap="round"/>
</g>
<!-- Center dividing line (subtle) -->
<line x1="12" y1="3" x2="12" y2="21" stroke="currentColor" stroke-width="0.5" opacity="0.3"/>
</svg>
