<?xml version="1.0" encoding="utf-8"?><!-- Uploaded to: SVG Repo, www.svgrepo.com, Generator: SVG Repo Mixer Tools -->
<svg width="800px" height="800px" viewBox="0 0 24 24" fill="none" xmlns="http://www.w3.org/2000/svg">
<path fill-rule="evenodd" clip-rule="evenodd" d="M15.1427 5.93951L11.7302 12.0005L8.31775 18.0635C10.4306 19.3339 13.0451 19.3458 15.1688 18.0947C17.2925 16.8436 18.5998 14.5213 18.5944 12.0093C18.5891 9.49743 17.2718 7.18105 15.1427 5.93951Z" stroke="#000000" stroke-width="1.5" stroke-linecap="round" stroke-linejoin="round"/>
<path d="M5.16682 8.13333C4.96403 8.4945 5.09242 8.95169 5.45359 9.15449C5.81476 9.35729 6.27195 9.2289 6.47475 8.86772L5.16682 8.13333ZM10.3242 5.92125C10.7267 5.82329 10.9735 5.41762 10.8756 5.01516C10.7776 4.61269 10.372 4.36584 9.96949 4.4638L10.3242 5.92125ZM6.47384 8.86934C6.67753 8.50867 6.55027 8.05117 6.1896 7.84748C5.82893 7.64379 5.37143 7.77104 5.16774 8.13171L6.47384 8.86934ZM4.46999 14.2106C4.58603 14.6083 5.00244 14.8365 5.40007 14.7205C5.79769 14.6045 6.02597 14.1881 5.90993 13.7904L4.46999 14.2106ZM6.20298 7.85522C5.84659 7.64413 5.38656 7.76193 5.17548 8.11833C4.96439 8.47472 5.08219 8.93476 5.43859 9.14584L6.20298 7.85522ZM11.7303 12.0005L11.3481 12.6458L11.3483 12.646L11.7303 12.0005ZM13.0379 13.646C13.3944 13.8569 13.8544 13.739 14.0654 13.3825C14.2763 13.0261 14.1584 12.5661 13.8019 12.3551L13.0379 13.646ZM10.8133 4.84852C10.6233 4.48045 10.1709 4.33608 9.80286 4.52607C9.43479 4.71606 9.29042 5.16846 9.48041 5.53653L10.8133 4.84852ZM10.0425 11.0005L9.38902 10.6325L9.38869 10.6331L10.0425 11.0005ZM5.16156 13.2511C4.74765 13.2667 4.42482 13.615 4.4405 14.0289C4.45618 14.4428 4.80444 14.7657 5.21836 14.75L5.16156 13.2511ZM9.96765 4.46425C9.56544 4.56323 9.31961 4.96952 9.41859 5.37174C9.51756 5.77395 9.92386 6.01978 10.3261 5.9208L9.96765 4.46425ZM15.1428 5.93953L15.7963 6.30744C15.9962 5.95243 15.8761 5.5028 15.5258 5.29473L15.1428 5.93953ZM8.31776 18.0635L7.93646 18.7094C8.11005 18.8119 8.3176 18.8401 8.51229 18.7879C8.70698 18.7356 8.87243 18.6071 8.97132 18.4314L8.31776 18.0635ZM5.91047 13.7923C5.79544 13.3943 5.37962 13.165 4.9817 13.28C4.58377 13.395 4.35444 13.8109 4.46946 14.2088L5.91047 13.7923ZM18.3009 10.75C18.7148 10.7343 19.0377 10.386 19.022 9.97213C19.0063 9.55821 18.658 9.23538 18.2441 9.25106L18.3009 10.75ZM12.7661 12.6331C12.5632 12.9942 12.6914 13.4515 13.0525 13.6544C13.4137 13.8573 13.8709 13.729 14.0738 13.3679L12.7661 12.6331ZM14.0734 13.3686C14.2767 13.0077 14.1489 12.5503 13.788 12.347C13.4271 12.1438 12.9697 12.2716 12.7665 12.6325L14.0734 13.3686ZM12.6492 19.1536C12.8392 19.5216 13.2916 19.666 13.6597 19.4759C14.0277 19.2859 14.1721 18.8335 13.982 18.4655L12.6492 19.1536ZM13.8021 12.3552C13.4457 12.1441 12.9857 12.262 12.7746 12.6184C12.5635 12.9748 12.6814 13.4348 13.0378 13.6459L13.8021 12.3552ZM17.2595 16.1459C17.6159 16.3569 18.076 16.2391 18.287 15.8827C18.4981 15.5263 18.3802 15.0662 18.0238 14.8552L17.2595 16.1459ZM6.47475 8.86772C7.31096 7.37847 8.70558 6.31523 10.3242 5.92125L9.96949 4.4638C7.93844 4.95815 6.20259 6.28867 5.16682 8.13333L6.47475 8.86772ZM5.16774 8.13171C4.12712 9.9743 3.87546 12.1733 4.46999 14.2106L5.90993 13.7904C5.42815 12.1395 5.63303 10.3581 6.47384 8.86934L5.16774 8.13171ZM5.43859 9.14584L11.3481 12.6458L12.1125 11.3552L6.20298 7.85522L5.43859 9.14584ZM11.3483 12.646L13.0379 13.646L13.8019 12.3551L12.1122 11.3551L11.3483 12.646ZM9.48041 5.53653C10.3069 7.13774 10.2721 9.06422 9.38902 10.6325L10.6961 11.3685C11.8272 9.35975 11.8712 6.89806 10.8133 4.84852L9.48041 5.53653ZM9.38869 10.6331C8.50754 12.2013 6.908 13.1849 5.16156 13.2511L5.21836 14.75C7.49848 14.6636 9.56563 13.3803 10.6964 11.3679L9.38869 10.6331ZM10.3261 5.9208C11.8309 5.55049 13.4178 5.78711 14.7597 6.58433L15.5258 5.29473C13.8474 4.29761 11.8569 3.99935 9.96765 4.46425L10.3261 5.9208ZM14.4892 5.57162L7.6642 17.6956L8.97132 18.4314L15.7963 6.30744L14.4892 5.57162ZM8.69907 17.4177C7.3548 16.624 6.35427 15.3276 5.91047 13.7923L4.46946 14.2088C5.0175 16.1047 6.25653 17.7175 7.93646 18.7094L8.69907 17.4177ZM18.2441 9.25106C15.964 9.33746 13.8968 10.6207 12.7661 12.6331L14.0738 13.3679C14.9549 11.7998 16.5545 10.8162 18.3009 10.75L18.2441 9.25106ZM12.7665 12.6325C11.6349 14.6415 11.5909 17.1038 12.6492 19.1536L13.982 18.4655C13.1552 16.864 13.19 14.9371 14.0734 13.3686L12.7665 12.6325ZM13.0378 13.6459L17.2595 16.1459L18.0238 14.8552L13.8021 12.3552L13.0378 13.6459Z" fill="#000000"/>
</svg>